<?xml version="1.0" encoding="UTF-8" standalone="no"?>
<!-- Created with Inkscape (http://www.inkscape.org/) -->

<svg
   width="422"
   height="190"
   viewBox="0 0 111.65414 50.270832"
   version="1.1"
   id="svg5"
   inkscape:version="1.1.2 (b8e25be833, 2022-02-05)"
   sodipodi:docname="cloudy.svg"
   xmlns:inkscape="http://www.inkscape.org/namespaces/inkscape"
   xmlns:sodipodi="http://sodipodi.sourceforge.net/DTD/sodipodi-0.dtd"
   xmlns="http://www.w3.org/2000/svg"
   xmlns:svg="http://www.w3.org/2000/svg">
  <sodipodi:namedview
     id="namedview7"
     pagecolor="#ffffff"
     bordercolor="#666666"
     borderopacity="1.0"
     inkscape:pageshadow="2"
     inkscape:pageopacity="0.0"
     inkscape:pagecheckerboard="0"
     inkscape:document-units="px"
     showgrid="false"
     inkscape:zoom="2.1619135"
     inkscape:cx="210.23043"
     inkscape:cy="103.38064"
     inkscape:window-width="1920"
     inkscape:window-height="1051"
     inkscape:window-x="-9"
     inkscape:window-y="-9"
     inkscape:window-maximized="1"
     inkscape:current-layer="g28732"
     inkscape:snap-grids="false"
     inkscape:snap-to-guides="false"
     units="px"
     width="415px" />
  <defs
     id="defs2">
    <rect
       x="176.62022"
       y="311.37491"
       width="166.15384"
       height="60.181705"
       id="rect825" />
    <rect
       x="176.62022"
       y="311.37491"
       width="166.15384"
       height="60.181705"
       id="rect26645" />
  </defs>
  <g
     inkscape:label="Layer 1"
     inkscape:groupmode="layer"
     id="layer1">
    <g
       id="g18083"
       transform="translate(13.217458,-1.9581419)">
      <g
         id="g19553"
         inkscape:export-filename="C:\Users\Anirudh Soni\cloudy.png"
         inkscape:export-xdpi="96"
         inkscape:export-ydpi="96">
        <g
           id="g25431"
           inkscape:export-filename="D:\cloudy.png"
           inkscape:export-xdpi="96"
           inkscape:export-ydpi="96">
          <g
             id="g26866"
             inkscape:export-filename="C:\Users\Anirudh Soni\g26866.png"
             inkscape:export-xdpi="96"
             inkscape:export-ydpi="96">
            <g
               id="g28732"
               transform="translate(-11.381699,-127.4016)">
              <g
                 id="g5685"
                 transform="translate(0.36715155,0.4895354)"
                 inkscape:export-filename="C:\Users\Anirudh Soni\Desktop\cloudy.png"
                 inkscape:export-xdpi="96"
                 inkscape:export-ydpi="96">
                <path
                   id="path13223"
                   style="fill:#ececec;stroke:#ffffff;stroke-width:0.782251;stroke-miterlimit:4;stroke-dasharray:none;stroke-opacity:1"
                   d="m 89.583673,129.96487 a 9.6161426,9.239039 0 0 0 -8.186806,4.40395 7.6120377,7.4377159 0 0 0 -1.835908,-0.22033 7.6120377,7.4377159 0 0 0 -7.612197,7.43766 7.6120377,7.4377159 0 0 0 0.0635,0.92333 8.3093233,7.7863596 0 0 0 -6.339102,7.5605 8.3093233,7.7863596 0 0 0 8.309294,7.78639 8.3093233,7.7863596 0 0 0 4.402222,-1.18879 10.575503,9.5295739 0 0 0 7.974799,3.28042 10.575503,9.5295739 0 0 0 9.921738,-6.2475 7.6701459,8.3674309 0 0 0 4.023997,1.25054 7.6701459,8.3674309 0 0 0 7.67014,-8.36759 7.6701459,8.3674309 0 0 0 -7.67014,-8.36724 7.6701459,8.3674309 0 0 0 -1.150951,0.0951 9.6161426,9.239039 0 0 0 -9.570583,-8.34643 z" />
                <path
                   id="path13620"
                   style="fill:#cccccc;stroke:#ffffff;stroke-width:0.717689;stroke-miterlimit:4;stroke-dasharray:none;stroke-opacity:1"
                   d="m 27.209228,144.04162 a 11.242082,10.631863 0 0 0 -9.571072,5.06787 8.8991141,8.558983 0 0 0 -2.146331,-0.25355 8.8991141,8.558983 0 0 0 -8.8993042,8.55891 8.8991141,8.558983 0 0 0 0.074261,1.06254 9.7143004,8.9601866 0 0 0 -7.41093974,8.70027 9.7143004,8.9601866 0 0 0 9.71426084,8.96022 9.7143004,8.9601866 0 0 0 5.1465701,-1.368 12.363655,10.966197 0 0 0 9.323217,3.77496 12.363655,10.966197 0 0 0 11.599355,-7.18935 8.967048,9.6288562 0 0 0 4.704398,1.43908 8.967048,9.6288562 0 0 0 8.967049,-9.62904 8.967048,9.6288562 0 0 0 -8.967049,-9.62864 8.967048,9.6288562 0 0 0 -1.345558,0.1094 11.242082,10.631863 0 0 0 -11.188834,-9.60467 z" />
                <text
                   xml:space="preserve"
                   transform="matrix(0.55289934,0,0,0.55289934,-75.912826,-34.121263)"
                   id="text26643"
                   style="font-style:normal;font-variant:normal;font-weight:600;font-stretch:normal;font-size:40px;line-height:0;font-family:Poppins;-inkscape-font-specification:'Poppins Semi-Bold';letter-spacing:3px;word-spacing:0px;white-space:pre;shape-inside:url(#rect26645);fill:#000;fill-opacity:1;stroke:#ffffff;stroke-opacity:1"><tspan
                     x="176.62109"
                     y="346.05609"
                     id="tspan5725"><tspan
                       style="font-weight:bold;line-height:1.25;font-family:Pacifico;-inkscape-font-specification:'Pacifico Bold'"
                       id="tspan5723">Cloudy</tspan></tspan></text>
              </g>
            </g>
          </g>
        </g>
      </g>
    </g>
  </g>
</svg>
